<svg version="1.1" id="Layer_1" xmlns="http://www.w3.org/2000/svg" xmlns:xlink="http://www.w3.org/1999/xlink" x="0px" y="0px"
	 width="100%" viewBox="0 0 1205 341" enable-background="new 0 0 1205 341" xml:space="preserve">
<path fill="#FDFEFE" opacity="1.000000" stroke="none" 
	d="
M810.000000,342.000000 
	C540.000000,342.000000 270.500000,342.000000 1.000000,342.000000 
	C1.000000,228.333328 1.000000,114.666664 1.000000,1.000000 
	C402.666656,1.000000 804.333313,1.000000 1206.000000,1.000000 
	C1206.000000,114.666664 1206.000000,228.333328 1206.000000,342.000000 
	C1074.166626,342.000000 942.333313,342.000000 810.000000,342.000000 
M725.397095,187.632431 
	C722.536011,194.342178 719.409241,200.954147 716.893005,207.790833 
	C714.647827,213.891235 716.106689,215.647171 722.560791,215.656281 
	C744.056335,215.686630 765.553894,215.840393 787.045837,215.567093 
	C792.207336,215.501450 794.763367,217.287750 796.769714,221.953110 
	C801.756165,233.547653 807.419067,244.849335 812.577271,256.372925 
	C814.546021,260.771088 817.461853,262.678375 822.275269,262.421967 
	C827.426636,262.147552 832.603699,262.387848 837.768555,262.325745 
	C846.132141,262.225220 847.474731,260.206299 843.947632,252.716446 
	C834.034607,231.665451 824.018372,210.663040 814.087280,189.620499 
	C796.910278,153.225250 779.687744,116.850983 762.704834,80.365280 
	C760.469788,75.563644 757.543091,73.485527 752.348267,73.780540 
	C746.698425,74.101402 741.006958,74.288628 735.365540,73.969673 
	C730.840210,73.713829 728.403809,75.451988 726.572632,79.491547 
	C718.411987,97.493698 710.068848,115.413826 701.701538,133.321503 
	C686.651428,165.531876 671.547852,197.717331 656.440979,229.901184 
	C652.846680,237.558594 649.115417,245.151657 645.514099,252.805847 
	C642.548157,259.109772 644.551880,262.307892 651.445557,262.361359 
	C656.777527,262.402679 662.122253,262.158813 667.438538,262.453278 
	C672.090637,262.710907 674.931580,260.862213 676.790344,256.673340 
	C681.237122,246.651825 685.901550,236.727173 690.422302,226.738190 
	C707.001099,190.106186 723.530884,153.451889 740.205139,116.863419 
	C740.978943,115.165436 742.821533,113.196045 744.444153,112.905785 
	C745.555054,112.707077 747.705811,114.948532 748.441895,116.538795 
	C757.930664,137.036575 767.188110,157.641403 776.665771,178.144394 
	C778.351013,181.790085 778.705383,184.752777 774.174805,187.030930 
	C767.045532,187.041138 759.915283,186.982529 752.787170,187.078964 
	C743.863770,187.199677 734.942078,187.447739 725.397095,187.632431 
M356.119293,267.615173 
	C363.311890,259.859436 366.606110,250.472794 367.840820,240.144745 
	C368.590881,233.870804 368.778503,227.329483 370.800018,221.452148 
	C374.289215,211.307846 378.764496,201.473694 383.274078,191.716507 
	C389.329407,178.614883 390.840912,165.508743 383.718353,152.489655 
	C374.914154,136.396606 369.103027,119.536743 367.359222,101.147057 
	C365.930817,86.083717 359.304138,73.626778 345.122803,66.729408 
	C327.589447,58.201706 311.838593,47.522224 298.489288,33.100887 
	C286.387512,20.027229 270.820831,17.797127 253.900681,20.900711 
	C238.542953,23.717710 223.081589,23.713758 207.701904,20.936514 
	C190.273697,17.789358 174.345734,20.155640 161.896408,33.871868 
	C149.260056,47.794163 134.059235,57.806149 117.261330,65.955948 
	C103.649673,72.559898 95.622246,83.687103 93.888214,99.050064 
	C93.124741,105.814133 92.044533,112.546082 90.970520,119.270638 
	C89.150810,130.664062 83.464439,140.504288 78.199921,150.500671 
	C71.874718,162.511093 70.027580,174.991684 76.382957,187.341370 
	C85.677849,205.403091 92.030792,224.174057 94.193611,244.463074 
	C95.684235,258.446289 103.150047,269.328949 115.654564,275.511444 
	C133.249756,284.210907 149.446640,294.421326 162.735809,309.136139 
	C166.406647,313.200775 171.531738,316.278137 176.510361,318.766632 
	C186.391052,323.705231 197.081772,322.146851 207.434601,320.715027 
	C223.077911,318.551483 238.565765,318.787262 254.203033,320.854462 
	C264.374207,322.199066 275.177246,324.001099 284.596710,318.738251 
	C291.871765,314.673462 298.633179,309.188904 304.512085,303.238129 
	C314.378021,293.251587 325.538666,285.543518 338.072418,279.375824 
	C344.265076,276.328522 349.779022,271.901978 356.119293,267.615173 
M537.463745,169.924255 
	C522.722107,187.518951 508.494904,205.583206 493.034485,222.521881 
	C484.554260,231.812958 480.108582,241.159622 482.087830,253.802902 
	C483.222565,261.051392 483.677002,262.303162 491.261414,262.313110 
	C519.250671,262.349762 547.239868,262.377197 575.229126,262.380676 
	C593.055603,262.382874 610.882141,262.367249 628.708435,262.294342 
	C634.384949,262.271118 636.418457,260.311737 636.515747,255.004776 
	C636.595154,250.674301 636.586914,246.341812 636.581177,242.010254 
	C636.571411,234.621384 635.318848,233.374985 627.793701,233.369598 
	C596.305786,233.347046 564.817688,233.387985 533.330627,233.220535 
	C531.351807,233.210007 528.413391,232.101212 527.683472,230.629440 
	C526.974426,229.199890 527.941833,226.151138 529.185730,224.655945 
	C560.130127,187.460419 590.934082,150.140579 622.453369,113.435684 
	C630.557312,103.998505 635.528137,94.584908 633.551208,82.117935 
	C633.473694,81.628716 633.502686,81.119728 633.509949,80.620354 
	C633.573792,76.222198 631.341614,74.358711 627.021851,74.363411 
	C581.372803,74.413063 535.723694,74.432526 490.074646,74.401344 
	C485.670319,74.398338 483.609680,76.554695 483.475464,80.721603 
	C483.325317,85.382492 483.276245,90.049911 483.322327,94.713120 
	C483.401215,102.698273 484.417755,103.710693 492.236115,103.703575 
	C522.224548,103.676292 552.213135,103.579994 582.200989,103.682495 
	C584.210449,103.689377 586.877747,104.633461 587.976135,106.092430 
	C588.647034,106.983559 587.369019,110.078911 586.171875,111.528030 
	C570.178711,130.887177 554.045166,150.130325 537.463745,169.924255 
M906.500000,74.355827 
	C883.338440,74.354675 860.176880,74.334740 837.015320,74.364616 
	C830.640686,74.372841 829.154846,75.935188 829.141724,82.384712 
	C829.132568,86.883484 829.175232,91.382515 829.217468,95.881210 
	C829.276245,102.146652 830.847290,103.733742 837.289490,103.744568 
	C852.119385,103.769478 866.949585,103.755966 881.779358,103.698090 
	C888.883301,103.670364 889.499817,104.188629 889.498535,111.288002 
	C889.490112,159.110733 889.465698,206.933472 889.458984,254.756210 
	C889.458130,260.744537 891.084045,262.359222 897.176453,262.423309 
	C902.174805,262.475922 907.174133,262.436401 912.173035,262.446259 
	C919.829346,262.461334 920.582764,261.755981 920.583862,254.292572 
	C920.591248,206.303238 920.588562,158.313919 920.587769,110.324593 
	C920.587646,104.573105 921.467590,103.695679 927.250366,103.703842 
	C942.913452,103.725960 958.576599,103.786026 974.239502,103.746399 
	C979.460144,103.733192 981.156006,102.093529 981.316895,96.926056 
	C981.472351,91.931938 981.453796,86.927986 981.354370,81.931488 
	C981.231262,75.754318 979.789185,74.429771 973.485352,74.421127 
	C951.490234,74.390968 929.495117,74.375633 906.500000,74.355827 
M1038.782104,260.339813 
	C1044.530884,254.356491 1046.098511,244.409378 1042.578003,236.292084 
	C1040.452759,231.392242 1037.150024,227.760513 1031.500854,227.641418 
	C1025.859741,227.522491 1022.248291,230.862976 1020.185852,235.845551 
	C1017.469604,242.407867 1017.455627,249.098618 1020.381958,255.566025 
	C1024.017822,263.601501 1030.500977,265.407104 1038.782104,260.339813 
z"/>
<path fill="#403F4D" opacity="1.000000" stroke="none" 
	d="
M355.859680,267.857330 
	C349.779022,271.901978 344.265076,276.328522 338.072418,279.375824 
	C325.538666,285.543518 314.378021,293.251587 304.512085,303.238129 
	C298.633179,309.188904 291.871765,314.673462 284.596710,318.738251 
	C275.177246,324.001099 264.374207,322.199066 254.203033,320.854462 
	C238.565765,318.787262 223.077911,318.551483 207.434601,320.715027 
	C197.081772,322.146851 186.391052,323.705231 176.510361,318.766632 
	C171.531738,316.278137 166.406647,313.200775 162.735809,309.136139 
	C149.446640,294.421326 133.249756,284.210907 115.654564,275.511444 
	C103.150047,269.328949 95.684235,258.446289 94.193611,244.463074 
	C92.030792,224.174057 85.677849,205.403091 76.382957,187.341370 
	C70.027580,174.991684 71.874718,162.511093 78.199921,150.500671 
	C83.464439,140.504288 89.150810,130.664062 90.970520,119.270638 
	C92.044533,112.546082 93.124741,105.814133 93.888214,99.050064 
	C95.622246,83.687103 103.649673,72.559898 117.261330,65.955948 
	C134.059235,57.806149 149.260056,47.794163 161.896408,33.871868 
	C174.345734,20.155640 190.273697,17.789358 207.701904,20.936514 
	C223.081589,23.713758 238.542953,23.717710 253.900681,20.900711 
	C270.820831,17.797127 286.387512,20.027229 298.489288,33.100887 
	C311.838593,47.522224 327.589447,58.201706 345.122803,66.729408 
	C359.304138,73.626778 365.930817,86.083717 367.359222,101.147057 
	C369.103027,119.536743 374.914154,136.396606 383.718353,152.489655 
	C390.840912,165.508743 389.329407,178.614883 383.274078,191.716507 
	C378.764496,201.473694 374.289215,211.307846 370.800018,221.452148 
	C368.778503,227.329483 368.590881,233.870804 367.840820,240.144745 
	C366.606110,250.472794 363.311890,259.859436 355.859680,267.857330 
M309.021423,67.110191 
	C307.934631,66.519577 306.847809,65.928963 305.275482,64.903229 
	C303.780762,63.658371 302.286041,62.413513 300.814453,60.507214 
	C300.135620,60.102104 299.456787,59.696999 298.294556,58.821148 
	C291.919220,52.811222 285.543915,46.801296 278.960999,40.114620 
	C269.971619,35.645020 260.912689,36.314209 250.919327,39.813675 
	C247.052734,40.070343 243.186127,40.327007 238.414886,40.174526 
	C232.943405,40.395077 227.471909,40.615623 221.269058,40.745125 
	C218.955338,40.618477 216.641617,40.491825 213.870514,39.833607 
	C210.134293,39.434727 206.398087,39.035851 201.991302,38.560425 
	C201.318268,38.516083 200.645248,38.471745 199.464401,37.790085 
	C192.789093,36.954975 186.185257,36.449139 180.296524,42.187927 
	C177.739716,44.564137 174.998398,46.772430 172.657288,49.344933 
	C161.083664,62.062592 147.927017,72.684616 131.840164,79.047287 
	C118.745926,84.226318 112.089653,93.630699 111.316078,107.427551 
	C110.315964,125.264992 104.653313,141.641876 95.675377,156.897858 
	C89.851517,166.794220 90.413063,176.092422 95.705765,186.134583 
	C100.248543,194.753891 104.083298,203.895493 106.960716,213.199066 
	C109.544945,221.554642 110.530617,230.423111 111.983734,239.105118 
	C113.598083,248.750488 117.999466,256.133698 127.197823,260.439850 
	C133.060699,263.184509 138.659241,266.506836 144.312073,269.684418 
	C155.625015,276.043732 164.854187,284.920471 173.568314,294.355194 
	C180.552246,301.916626 188.791245,305.107117 199.117447,303.188293 
	C220.134171,299.283020 241.270584,299.509186 262.240204,303.180847 
	C273.052643,305.074036 280.600250,301.099945 288.023621,293.847626 
	C296.656403,285.413666 305.937408,277.547180 315.566345,270.266602 
	C320.917694,266.220398 327.475769,263.711182 333.624359,260.792389 
	C342.465881,256.595215 347.645752,249.941528 348.777344,240.108826 
	C349.480408,233.999695 349.748383,227.682755 351.587250,221.896240 
	C354.992737,211.179840 358.317230,200.188095 363.668915,190.401062 
	C370.844116,177.279251 371.650940,165.473434 363.559967,152.561523 
	C355.785919,140.155396 352.093201,126.243019 350.327209,111.606911 
	C349.239136,102.589272 348.875031,92.771049 340.906403,85.328987 
	C340.167145,85.049049 339.427856,84.769112 338.153595,84.032845 
	C334.832001,82.269623 331.510437,80.506401 327.967255,78.146614 
	C327.229340,77.882317 326.491455,77.618019 325.236053,77.126862 
	C324.876282,77.015808 324.516510,76.904762 323.940948,76.192436 
	C323.217987,75.902237 322.495056,75.612030 321.248291,75.116730 
	C320.892517,74.998123 320.536774,74.879517 319.974823,74.113083 
	C318.863800,73.650848 317.752747,73.188606 316.001617,72.427277 
	C313.731384,70.868423 311.461151,69.309578 309.021423,67.110191 
z"/>
<path fill="#413F4D" opacity="1.000000" stroke="none" 
	d="
M537.705078,169.663300 
	C554.045166,150.130325 570.178711,130.887177 586.171875,111.528030 
	C587.369019,110.078911 588.647034,106.983559 587.976135,106.092430 
	C586.877747,104.633461 584.210449,103.689377 582.200989,103.682495 
	C552.213135,103.579994 522.224548,103.676292 492.236115,103.703575 
	C484.417755,103.710693 483.401215,102.698273 483.322327,94.713120 
	C483.276245,90.049911 483.325317,85.382492 483.475464,80.721603 
	C483.609680,76.554695 485.670319,74.398338 490.074646,74.401344 
	C535.723694,74.432526 581.372803,74.413063 627.021851,74.363411 
	C631.341614,74.358711 633.573792,76.222198 633.509949,80.620354 
	C633.502686,81.119728 633.473694,81.628716 633.551208,82.117935 
	C635.528137,94.584908 630.557312,103.998505 622.453369,113.435684 
	C590.934082,150.140579 560.130127,187.460419 529.185730,224.655945 
	C527.941833,226.151138 526.974426,229.199890 527.683472,230.629440 
	C528.413391,232.101212 531.351807,233.210007 533.330627,233.220535 
	C564.817688,233.387985 596.305786,233.347046 627.793701,233.369598 
	C635.318848,233.374985 636.571411,234.621384 636.581177,242.010254 
	C636.586914,246.341812 636.595154,250.674301 636.515747,255.004776 
	C636.418457,260.311737 634.384949,262.271118 628.708435,262.294342 
	C610.882141,262.367249 593.055603,262.382874 575.229126,262.380676 
	C547.239868,262.377197 519.250671,262.349762 491.261414,262.313110 
	C483.677002,262.303162 483.222565,261.051392 482.087830,253.802902 
	C480.108582,241.159622 484.554260,231.812958 493.034485,222.521881 
	C508.494904,205.583206 522.722107,187.518951 537.705078,169.663300 
M617.477173,236.015350 
	C621.240479,236.015350 625.003723,236.015350 628.767029,236.015350 
	C628.753174,235.791397 628.739319,235.567459 628.725464,235.343506 
	C595.904480,235.343506 563.083496,235.343506 530.262512,235.343506 
	C530.263062,235.567535 530.263550,235.791580 530.264099,236.015610 
	C559.004272,236.015610 587.744385,236.015610 617.477173,236.015350 
z"/>
<path fill="#3F3D4B" opacity="1.000000" stroke="none" 
	d="
M775.098389,187.271057 
	C778.705383,184.752777 778.351013,181.790085 776.665771,178.144394 
	C767.188110,157.641403 757.930664,137.036575 748.441895,116.538795 
	C747.705811,114.948532 745.555054,112.707077 744.444153,112.905785 
	C742.821533,113.196045 740.978943,115.165436 740.205139,116.863419 
	C723.530884,153.451889 707.001099,190.106186 690.422302,226.738190 
	C685.901550,236.727173 681.237122,246.651825 676.790344,256.673340 
	C674.931580,260.862213 672.090637,262.710907 667.438538,262.453278 
	C662.122253,262.158813 656.777527,262.402679 651.445557,262.361359 
	C644.551880,262.307892 642.548157,259.109772 645.514099,252.805847 
	C649.115417,245.151657 652.846680,237.558594 656.440979,229.901184 
	C671.547852,197.717331 686.651428,165.531876 701.701538,133.321503 
	C710.068848,115.413826 718.411987,97.493698 726.572632,79.491547 
	C728.403809,75.451988 730.840210,73.713829 735.365540,73.969673 
	C741.006958,74.288628 746.698425,74.101402 752.348267,73.780540 
	C757.543091,73.485527 760.469788,75.563644 762.704834,80.365280 
	C779.687744,116.850983 796.910278,153.225250 814.087280,189.620499 
	C824.018372,210.663040 834.034607,231.665451 843.947632,252.716446 
	C847.474731,260.206299 846.132141,262.225220 837.768555,262.325745 
	C832.603699,262.387848 827.426636,262.147552 822.275269,262.421967 
	C817.461853,262.678375 814.546021,260.771088 812.577271,256.372925 
	C807.419067,244.849335 801.756165,233.547653 796.769714,221.953110 
	C794.763367,217.287750 792.207336,215.501450 787.045837,215.567093 
	C765.553894,215.840393 744.056335,215.686630 722.560791,215.656281 
	C716.106689,215.647171 714.647827,213.891235 716.893005,207.790833 
	C719.409241,200.954147 722.536011,194.342178 725.749451,188.008362 
	C726.477661,188.874084 726.850281,189.789551 727.229675,189.792374 
	C742.797668,189.907791 758.366333,189.961075 773.933960,189.871185 
	C774.327148,189.868912 774.710510,188.175659 775.098389,187.271057 
z"/>
<path fill="#43414E" opacity="1.000000" stroke="none" 
	d="
M907.000000,74.355240 
	C929.495117,74.375633 951.490234,74.390968 973.485352,74.421127 
	C979.789185,74.429771 981.231262,75.754318 981.354370,81.931488 
	C981.453796,86.927986 981.472351,91.931938 981.316895,96.926056 
	C981.156006,102.093529 979.460144,103.733192 974.239502,103.746399 
	C958.576599,103.786026 942.913452,103.725960 927.250366,103.703842 
	C921.467590,103.695679 920.587646,104.573105 920.587769,110.324593 
	C920.588562,158.313919 920.591248,206.303238 920.583862,254.292572 
	C920.582764,261.755981 919.829346,262.461334 912.173035,262.446259 
	C907.174133,262.436401 902.174805,262.475922 897.176453,262.423309 
	C891.084045,262.359222 889.458130,260.744537 889.458984,254.756210 
	C889.465698,206.933472 889.490112,159.110733 889.498535,111.288002 
	C889.499817,104.188629 888.883301,103.670364 881.779358,103.698090 
	C866.949585,103.755966 852.119385,103.769478 837.289490,103.744568 
	C830.847290,103.733742 829.276245,102.146652 829.217468,95.881210 
	C829.175232,91.382515 829.132568,86.883484 829.141724,82.384712 
	C829.154846,75.935188 830.640686,74.372841 837.015320,74.364616 
	C860.176880,74.334740 883.338440,74.354675 907.000000,74.355240 
z"/>
<path fill="#43414E" opacity="1.000000" stroke="none" 
	d="
M1038.516113,260.589569 
	C1030.500977,265.407104 1024.017822,263.601501 1020.381958,255.566025 
	C1017.455627,249.098618 1017.469604,242.407867 1020.185852,235.845551 
	C1022.248291,230.862976 1025.859741,227.522491 1031.500854,227.641418 
	C1037.150024,227.760513 1040.452759,231.392242 1042.578003,236.292084 
	C1046.098511,244.409378 1044.530884,254.356491 1038.516113,260.589569 
z"/>
<path fill="#33323D" opacity="1.000000" stroke="none" 
	d="
M774.636597,187.150986 
	C774.710510,188.175659 774.327148,189.868912 773.933960,189.871185 
	C758.366333,189.961075 742.797668,189.907791 727.229675,189.792374 
	C726.850281,189.789551 726.477661,188.874084 726.060730,188.012543 
	C734.942078,187.447739 743.863770,187.199677 752.787170,187.078964 
	C759.915283,186.982529 767.045532,187.041138 774.636597,187.150986 
z"/>
<path fill="#FBFBFB" opacity="1.000000" stroke="none" 
	d="
M239.319534,40.583675 
	C243.186127,40.327007 247.052734,40.070343 251.807343,39.916153 
	C261.552917,39.141117 270.430084,37.591263 279.168610,40.791367 
	C285.543915,46.801296 291.919220,52.811222 298.588013,59.353065 
	C299.518097,60.312874 300.154724,60.740768 300.791321,61.168659 
	C302.286041,62.413513 303.780762,63.658371 305.612671,65.434616 
	C307.030243,66.560905 308.110565,67.155815 309.190918,67.750732 
	C311.461151,69.309578 313.731384,70.868423 316.478455,72.846542 
	C318.030518,73.764175 319.105743,74.262543 320.181000,74.760910 
	C320.536774,74.879517 320.892517,74.998123 321.584320,75.538986 
	C322.665802,76.238731 323.411285,76.516228 324.156738,76.793716 
	C324.516510,76.904762 324.876282,77.015808 325.569641,77.559341 
	C326.665070,78.242271 327.426971,78.492722 328.188843,78.743179 
	C331.510437,80.506401 334.832001,82.269623 338.532990,84.540787 
	C339.616425,85.357269 340.320496,85.665810 341.024536,85.974358 
	C348.875031,92.771049 349.239136,102.589272 350.327209,111.606911 
	C352.093201,126.243019 355.785919,140.155396 363.559967,152.561523 
	C371.650940,165.473434 370.844116,177.279251 363.668915,190.401062 
	C358.317230,200.188095 354.992737,211.179840 351.587250,221.896240 
	C349.748383,227.682755 349.480408,233.999695 348.777344,240.108826 
	C347.645752,249.941528 342.465881,256.595215 333.624359,260.792389 
	C327.475769,263.711182 320.917694,266.220398 315.566345,270.266602 
	C305.937408,277.547180 296.656403,285.413666 288.023621,293.847626 
	C280.600250,301.099945 273.052643,305.074036 262.240204,303.180847 
	C241.270584,299.509186 220.134171,299.283020 199.117447,303.188293 
	C188.791245,305.107117 180.552246,301.916626 173.568314,294.355194 
	C164.854187,284.920471 155.625015,276.043732 144.312073,269.684418 
	C138.659241,266.506836 133.060699,263.184509 127.197823,260.439850 
	C117.999466,256.133698 113.598083,248.750488 111.983734,239.105118 
	C110.530617,230.423111 109.544945,221.554642 106.960716,213.199066 
	C104.083298,203.895493 100.248543,194.753891 95.705765,186.134583 
	C90.413063,176.092422 89.851517,166.794220 95.675377,156.897858 
	C104.653313,141.641876 110.315964,125.264992 111.316078,107.427551 
	C112.089653,93.630699 118.745926,84.226318 131.840164,79.047287 
	C147.927017,72.684616 161.083664,62.062592 172.657288,49.344933 
	C174.998398,46.772430 177.739716,44.564137 180.959030,42.044891 
	C187.738434,40.743710 193.855316,39.585556 199.972214,38.427406 
	C200.645248,38.471745 201.318268,38.516083 202.525497,38.901802 
	C206.815765,39.617176 210.571823,39.991177 214.327896,40.365173 
	C216.641617,40.491825 218.955338,40.618477 221.894867,41.122955 
	C228.120285,41.195080 233.719910,40.889378 239.319534,40.583675 
M196.857986,131.028625 
	C197.835724,129.336563 198.813461,127.644478 200.149246,125.300453 
	C200.714539,122.856857 201.279831,120.413261 202.244202,117.585258 
	C202.093185,116.738998 201.942169,115.892738 201.865051,114.280823 
	C201.143860,111.884872 200.422668,109.488922 199.739578,106.462051 
	C199.132263,105.709129 198.524948,104.956207 197.619583,103.592476 
	C195.287399,101.536186 192.955231,99.479889 190.245392,96.821342 
	C187.151703,95.880905 184.111267,94.579857 180.947693,94.112724 
	C178.358521,93.730400 176.857712,93.340157 176.221207,90.317535 
	C175.720200,87.938492 173.762680,85.866173 172.376770,83.622177 
	C172.376770,83.622177 172.371201,83.539085 172.138565,82.898895 
	C165.550491,77.259483 158.598160,77.478134 152.602112,83.600494 
	C152.602112,83.600494 152.517120,83.636627 151.910629,83.934685 
	C150.921143,85.789825 149.367157,87.559265 149.069565,89.519447 
	C148.577255,92.762169 147.159393,93.705872 143.982101,94.178398 
	C140.752243,94.658737 137.723816,96.493530 134.264877,97.803009 
	C134.264877,97.803009 134.019043,98.050667 133.326920,98.027252 
	C121.370865,105.516167 120.620331,121.319092 126.943443,128.922333 
	C130.307816,131.560944 133.672195,134.199570 137.388000,137.352112 
	C137.976746,137.439438 138.565506,137.526764 139.204178,138.281128 
	C139.326874,139.163422 139.449585,140.045700 139.166641,141.488480 
	C139.520065,142.971695 139.873474,144.454895 140.320663,146.567123 
	C141.671295,147.884918 143.021927,149.202698 144.911560,151.089661 
	C147.804459,151.774582 148.629883,153.547455 148.581116,156.510635 
	C148.520508,160.194183 149.213181,163.890152 149.706497,168.082382 
	C149.987396,168.511963 150.268295,168.941528 150.875092,170.131241 
	C151.319504,171.980225 152.142563,173.827454 152.151062,175.678436 
	C152.263672,200.238434 152.200378,224.799408 152.380508,249.358673 
	C152.399292,251.918335 153.691422,254.468658 154.459305,257.684143 
	C154.843338,258.200806 155.227371,258.717499 155.896301,259.881714 
	C160.434525,263.545898 163.163544,263.565247 168.178848,259.674530 
	C168.907486,258.683929 169.636139,257.693298 170.866867,256.291016 
	C171.106125,255.481659 171.345383,254.672318 171.858749,253.837662 
	C171.858749,253.837662 171.856232,253.562378 172.811584,253.537003 
	C177.373657,253.513901 181.948746,253.680099 186.490921,253.367615 
	C188.136429,253.254395 189.703156,251.996002 191.120621,251.015472 
	C191.120621,251.015472 191.272507,251.282089 191.901459,250.894226 
	C192.036453,248.092941 192.567413,245.230499 192.148026,242.514816 
	C191.920776,241.043228 190.073761,239.821762 188.169235,238.196503 
	C185.398346,237.927505 181.188156,238.978134 184.806717,233.808609 
	C192.544876,233.842926 193.433777,232.598724 191.956253,223.370300 
	C191.616119,222.254868 191.275970,221.139450 190.739639,219.263840 
	C185.877975,218.879532 181.020630,218.418335 176.152786,218.143723 
	C173.761261,218.008804 172.126038,217.834564 172.151138,214.602371 
	C172.252884,201.504486 171.999054,188.403992 172.068558,175.305496 
	C172.078064,173.511429 173.114960,171.702377 173.775421,169.937393 
	C174.597870,167.739471 176.422943,165.498474 176.234314,163.419510 
	C175.686417,157.380585 175.034164,151.697876 182.721786,149.112457 
	C182.721786,149.112457 182.955902,148.786163 183.568008,148.698837 
	C184.002228,147.791489 184.436432,146.884125 185.416046,145.482849 
	C185.511993,144.293640 185.607956,143.104446 186.142532,141.505157 
	C185.878265,138.918762 186.706787,137.510834 189.444748,136.439575 
	C192.005386,135.437683 194.011200,133.017746 196.034470,131.062042 
	C196.034470,131.062042 196.236633,131.252014 196.857986,131.028625 
M262.488373,241.807571 
	C268.931580,241.237396 275.647003,243.176575 281.194031,237.193787 
	C285.397217,232.660461 290.959412,229.342438 296.100067,225.745453 
	C298.102478,224.344345 300.566498,222.909698 302.890045,222.784439 
	C311.548828,222.317627 319.792877,220.389008 327.053955,215.752167 
	C337.445251,209.116409 345.224884,200.591156 343.804901,186.963654 
	C342.565308,175.067078 331.757965,168.350433 320.683289,172.450714 
	C319.554413,172.868683 318.302643,172.954865 316.848602,173.247116 
	C316.848602,171.227097 316.803131,169.751297 316.856171,168.279053 
	C317.138641,160.438675 316.840790,160.147110 308.975281,160.153259 
	C272.342926,160.181885 235.710129,160.286758 199.078720,160.110046 
	C194.020081,160.085632 192.223007,161.788300 192.325592,166.659714 
	C192.633423,181.278320 194.142929,195.858566 201.300110,208.725357 
	C212.442810,228.757111 227.084396,244.366257 253.003265,241.914230 
	C255.810516,241.648651 258.661285,241.843231 262.488373,241.807571 
M251.851410,91.662132 
	C244.224655,83.912315 235.049881,78.819275 224.702896,75.652161 
	C221.222733,74.586922 219.358521,75.718163 218.439163,79.148552 
	C216.043777,88.086548 216.634598,97.073837 219.035721,105.751297 
	C223.730118,122.716499 236.566833,130.653198 252.670059,134.711014 
	C256.545898,135.687683 258.723877,134.793274 259.566406,130.859680 
	C262.542969,116.962044 261.852844,103.762436 251.851410,91.662132 
M228.542038,255.337906 
	C248.531586,255.368240 268.521210,255.380905 288.510620,255.446686 
	C291.756439,255.457367 295.145813,254.862274 295.318085,251.239410 
	C295.502350,247.365417 291.912476,247.484024 289.012177,247.480942 
	C265.691254,247.456055 242.369751,247.353409 219.050568,247.541229 
	C217.355789,247.554871 215.677887,249.661972 213.992126,250.795746 
	C215.683151,252.303619 217.155914,254.565369 219.118973,255.133728 
	C221.733170,255.890625 224.728912,255.329727 228.542038,255.337906 
M264.554321,133.300446 
	C263.876099,137.372559 263.229034,141.450165 262.511108,145.515259 
	C261.754822,149.797455 263.661285,151.140152 267.767365,150.916916 
	C283.937988,150.037689 295.264832,138.643433 295.912262,122.398918 
	C296.109436,117.451614 294.653809,116.026405 289.751892,116.591805 
	C278.851166,117.849106 270.243469,122.690163 264.554321,133.300446 
z"/>
<path fill="#9D9EA7" opacity="1.000000" stroke="none" 
	d="
M279.064819,40.452991 
	C270.430084,37.591263 261.552917,39.141117 252.255859,39.882935 
	C260.912689,36.314209 269.971619,35.645020 279.064819,40.452991 
z"/>
<path fill="#9D9EA7" opacity="1.000000" stroke="none" 
	d="
M199.718307,38.108742 
	C193.855316,39.585556 187.738434,40.743710 181.240112,41.865074 
	C186.185257,36.449139 192.789093,36.954975 199.718307,38.108742 
z"/>
<path fill="#9D9EA7" opacity="1.000000" stroke="none" 
	d="
M238.867218,40.379101 
	C233.719910,40.889378 228.120285,41.195080 222.260544,41.168476 
	C227.471909,40.615623 232.943405,40.395077 238.867218,40.379101 
z"/>
<path fill="#9D9EA7" opacity="1.000000" stroke="none" 
	d="
M214.099213,40.099388 
	C210.571823,39.991177 206.815765,39.617176 202.860779,38.940079 
	C206.398087,39.035851 210.134293,39.434727 214.099213,40.099388 
z"/>
<path fill="#9D9EA7" opacity="1.000000" stroke="none" 
	d="
M309.106171,67.430458 
	C308.110565,67.155815 307.030243,66.560905 305.855469,65.652176 
	C306.847809,65.928963 307.934631,66.519577 309.106171,67.430458 
z"/>
<path fill="#9D9EA7" opacity="1.000000" stroke="none" 
	d="
M320.077911,74.436996 
	C319.105743,74.262543 318.030518,73.764175 316.798492,72.996094 
	C317.752747,73.188606 318.863800,73.650848 320.077911,74.436996 
z"/>
<path fill="#9D9EA7" opacity="1.000000" stroke="none" 
	d="
M340.965454,85.651672 
	C340.320496,85.665810 339.616425,85.357269 338.800476,84.768951 
	C339.427856,84.769112 340.167145,85.049049 340.965454,85.651672 
z"/>
<path fill="#9D9EA7" opacity="1.000000" stroke="none" 
	d="
M324.048828,76.493080 
	C323.411285,76.516228 322.665802,76.238731 321.846222,75.641541 
	C322.495056,75.612030 323.217987,75.902237 324.048828,76.493080 
z"/>
<path fill="#9D9EA7" opacity="1.000000" stroke="none" 
	d="
M300.802887,60.837936 
	C300.154724,60.740768 299.518097,60.312874 298.829712,59.588432 
	C299.456787,59.696999 300.135620,60.102104 300.802887,60.837936 
z"/>
<path fill="#9D9EA7" opacity="1.000000" stroke="none" 
	d="
M328.078064,78.444901 
	C327.426971,78.492722 326.665070,78.242271 325.828369,77.672760 
	C326.491455,77.618019 327.229340,77.882317 328.078064,78.444901 
z"/>
<path fill="#33323D" opacity="1.000000" stroke="none" 
	d="
M616.980835,236.015472 
	C587.744385,236.015610 559.004272,236.015610 530.264099,236.015610 
	C530.263550,235.791580 530.263062,235.567535 530.262512,235.343506 
	C563.083496,235.343506 595.904480,235.343506 628.725464,235.343506 
	C628.739319,235.567459 628.753174,235.791397 628.767029,236.015350 
	C625.003723,236.015350 621.240479,236.015350 616.980835,236.015472 
z"/>
<path fill="#4B4B57" opacity="1.000000" stroke="none" 
	d="
M261.990112,241.815979 
	C258.661285,241.843231 255.810516,241.648651 253.003265,241.914230 
	C227.084396,244.366257 212.442810,228.757111 201.300110,208.725357 
	C194.142929,195.858566 192.633423,181.278320 192.325592,166.659714 
	C192.223007,161.788300 194.020081,160.085632 199.078720,160.110046 
	C235.710129,160.286758 272.342926,160.181885 308.975281,160.153259 
	C316.840790,160.147110 317.138641,160.438675 316.856171,168.279053 
	C316.803131,169.751297 316.848602,171.227097 316.848602,173.247116 
	C318.302643,172.954865 319.554413,172.868683 320.683289,172.450714 
	C331.757965,168.350433 342.565308,175.067078 343.804901,186.963654 
	C345.224884,200.591156 337.445251,209.116409 327.053955,215.752167 
	C319.792877,220.389008 311.548828,222.317627 302.890045,222.784439 
	C300.566498,222.909698 298.102478,224.344345 296.100067,225.745453 
	C290.959412,229.342438 285.397217,232.660461 281.194031,237.193787 
	C275.647003,243.176575 268.931580,241.237396 261.990112,241.815979 
M307.296722,184.471359 
	C307.833466,180.516541 308.376556,176.562576 308.904968,172.606644 
	C309.330811,169.418594 308.455170,167.625854 304.708557,167.627182 
	C271.072174,167.639038 237.435684,167.555786 203.799484,167.428314 
	C200.997498,167.417709 199.847961,168.392593 200.077469,171.222549 
	C201.216324,185.265381 203.986191,198.792084 211.274734,211.155182 
	C226.999527,237.828186 261.633636,241.165619 282.391998,227.450562 
	C297.334106,217.578339 304.399384,202.599991 307.296722,184.471359 
M317.699036,182.142090 
	C316.515259,184.263916 315.003571,186.270111 314.207184,188.528549 
	C311.456390,196.329712 308.946655,204.216080 306.370605,212.078354 
	C306.098145,212.909912 305.993683,213.796478 305.671783,215.315857 
	C317.771179,213.578369 327.739960,209.362778 333.929901,198.975739 
	C336.725037,194.285400 337.801575,188.831207 335.169830,183.675888 
	C332.147461,177.755386 325.919189,177.199890 317.699036,182.142090 
z"/>
<path fill="#4B4B57" opacity="1.000000" stroke="none" 
	d="
M252.063873,91.949524 
	C261.852844,103.762436 262.542969,116.962044 259.566406,130.859680 
	C258.723877,134.793274 256.545898,135.687683 252.670059,134.711014 
	C236.566833,130.653198 223.730118,122.716499 219.035721,105.751297 
	C216.634598,97.073837 216.043777,88.086548 218.439163,79.148552 
	C219.358521,75.718163 221.222733,74.586922 224.702896,75.652161 
	C235.049881,78.819275 244.224655,83.912315 252.063873,91.949524 
M237.508789,121.064568 
	C240.073166,122.481857 242.637527,123.899147 245.201904,125.316437 
	C245.505722,124.901192 245.809540,124.485954 246.113342,124.070709 
	C245.255371,122.500923 244.464294,120.889862 243.526474,119.369324 
	C240.996674,115.267624 238.296127,111.267120 235.883926,107.098801 
	C234.731766,105.107864 232.520737,102.682816 235.943787,100.752419 
	C238.887085,99.092567 240.117386,101.535423 241.334213,103.513298 
	C243.940796,107.750107 246.431015,112.058784 249.057526,116.282913 
	C250.287170,118.260529 251.722473,120.110260 253.401260,122.496559 
	C258.342987,103.890244 240.317154,85.665741 225.076065,84.369614 
	C221.430145,96.995819 226.030441,111.060997 237.508789,121.064568 
z"/>
<path fill="#3F3D4B" opacity="1.000000" stroke="none" 
	d="
M144.372559,150.520477 
	C143.021927,149.202698 141.671295,147.884918 140.512756,145.986176 
	C140.327316,143.912811 139.949799,142.420410 139.572281,140.927994 
	C139.449585,140.045700 139.326874,139.163422 139.136169,137.684631 
	C138.390976,137.004807 137.713760,136.921494 137.036560,136.838181 
	C133.672195,134.199570 130.307816,131.560944 126.945732,128.192337 
	C126.608894,125.705048 126.269768,123.947754 126.097076,121.916977 
	C126.848480,121.427910 127.433464,121.212326 128.411652,120.992508 
	C129.326645,120.933891 129.848404,120.879509 130.541138,121.065781 
	C130.875671,122.073929 131.039246,122.841438 131.136475,123.978424 
	C131.884003,125.263069 132.697891,126.178223 133.775299,127.288101 
	C135.033310,128.305405 136.027786,129.128006 137.058350,130.322937 
	C139.806030,133.589310 142.774460,134.149429 146.378448,131.507782 
	C147.577835,131.096466 148.474701,130.861115 149.698685,130.821686 
	C151.005280,132.543823 151.984741,134.070038 152.673126,135.783142 
	C151.925949,135.991959 151.469849,136.013855 150.824570,135.778381 
	C149.445679,136.404160 148.255951,137.287308 146.932205,138.504242 
	C146.863708,140.896942 146.929230,142.955856 147.019196,145.313385 
	C147.704056,145.718353 148.364456,145.824707 149.402390,145.833878 
	C152.321274,144.477600 155.379242,143.746338 157.306610,141.859924 
	C162.981827,136.305283 162.814423,136.119110 168.103058,142.288559 
	C168.513687,142.767563 168.701263,143.437775 169.034576,144.380325 
	C171.575272,146.546860 174.065979,148.423309 177.300354,145.407135 
	C178.024704,144.788940 178.525711,144.397324 179.336670,143.979599 
	C179.645432,142.944122 179.644211,141.934753 179.477783,140.585999 
	C177.893509,139.284134 176.589233,138.042511 175.036865,137.404434 
	C164.791809,133.193344 161.100876,122.483353 167.418701,113.990959 
	C168.186142,113.008316 168.621445,112.069382 169.262039,110.857437 
	C171.978378,109.391045 174.489395,108.197639 177.218338,107.274826 
	C179.304062,107.648560 181.171875,107.751709 183.332153,107.888992 
	C184.088684,108.269554 184.552750,108.615990 185.043076,109.294518 
	C185.732971,110.075218 186.396576,110.523819 187.368835,111.199211 
	C189.677353,115.621025 190.120712,119.844460 186.183182,123.005547 
	C184.756943,124.150543 182.182571,123.865387 180.132080,124.232803 
	C180.576294,122.558495 180.960526,120.864845 181.491409,119.218475 
	C181.737045,118.456650 182.268646,117.787033 182.896973,116.992279 
	C182.904068,116.249794 182.684784,115.590660 182.289383,114.753029 
	C182.060043,114.416054 182.006821,114.257584 181.955460,113.794647 
	C181.300903,113.340363 180.644501,113.190544 179.603760,113.059914 
	C177.342499,113.692131 175.465576,114.305153 173.231903,114.934494 
	C172.254272,116.308304 171.633377,117.665802 171.027863,119.448143 
	C171.589417,122.170197 172.135620,124.467407 172.672226,127.073532 
	C173.419785,128.311829 174.176941,129.241211 175.012939,130.530411 
	C178.279602,133.633453 181.575241,134.319626 185.372101,131.234726 
	C188.351318,128.985886 191.017624,126.914932 194.055542,124.887314 
	C194.924393,124.920082 195.421631,124.909531 195.974945,125.223480 
	C196.667892,126.024773 197.304810,126.501564 197.809937,127.292648 
	C197.197662,128.821960 196.717148,130.036987 196.236633,131.252014 
	C196.236633,131.252014 196.034470,131.062042 195.777573,131.093399 
	C192.915649,132.498230 190.400436,134.094223 187.683701,135.190994 
	C183.969299,136.690552 183.035950,138.690994 185.703903,141.915237 
	C185.607956,143.104446 185.511993,144.293640 184.817566,145.765488 
	C183.798035,146.960800 183.376968,147.873489 182.955902,148.786163 
	C182.955902,148.786163 182.721786,149.112457 182.126816,149.101166 
	C173.924911,151.551270 173.846024,149.695511 173.971130,160.557220 
	C173.982529,161.547073 173.909592,162.552811 174.057632,163.523438 
	C174.557327,166.800156 173.225342,168.923706 169.785248,170.025803 
	C168.596527,170.684525 167.780563,171.353745 166.691238,171.894424 
	C165.864990,171.544006 165.312103,171.322159 164.515213,171.040329 
	C164.173080,170.844528 164.074921,170.708679 163.974030,170.194855 
	C162.431610,164.971375 168.190323,167.058212 169.203262,163.992432 
	C168.650070,162.525177 168.015274,160.790833 167.200974,160.701996 
	C163.989746,160.351654 160.708130,160.347458 157.485291,160.612244 
	C156.676086,160.678711 155.988342,162.223618 155.112915,163.283295 
	C155.077301,163.935074 155.173584,164.392639 154.952820,165.001953 
	C153.753845,166.443893 152.871933,167.734070 151.621033,169.074493 
	C151.017761,169.206848 150.783478,169.288971 150.549194,169.371109 
	C150.268295,168.941528 149.987396,168.511963 149.785767,167.336090 
	C149.928986,163.005280 149.842636,159.410126 150.095520,155.838974 
	C150.400742,151.528503 148.584457,149.814621 144.372559,150.520477 
M169.708145,152.926468 
	C169.950958,152.469070 170.193756,152.011688 170.436569,151.554276 
	C169.868912,151.407104 169.301254,151.259933 168.073624,150.940674 
	C167.124496,150.287369 166.232666,149.519302 165.211807,149.009689 
	C163.925369,148.367462 162.533554,147.936325 161.187210,147.414124 
	C160.240356,150.206970 154.484253,149.154663 156.007172,154.787964 
	C155.679077,161.865021 161.070114,158.250061 164.000412,158.903351 
	C167.781128,159.746277 168.367203,157.271667 168.144470,153.864777 
	C168.464874,153.579498 168.785263,153.294235 169.708145,152.926468 
z"/>
<path fill="#494753" opacity="1.000000" stroke="none" 
	d="
M164.759216,171.100296 
	C165.312103,171.322159 165.864990,171.544006 166.698929,172.341553 
	C167.295242,178.000488 167.792984,183.080429 167.885880,188.167755 
	C168.053452,197.344589 167.930145,206.526703 168.092972,215.703690 
	C168.106766,216.481155 169.357086,217.236694 170.370956,218.186966 
	C172.527130,218.908005 174.327713,219.822311 176.166885,219.907944 
	C181.081024,220.136719 186.011703,220.009674 190.935822,220.024017 
	C191.275970,221.139450 191.616119,222.254868 191.606903,224.010162 
	C191.029007,228.896347 191.359116,233.607285 184.672974,232.435059 
	C184.512924,232.406998 184.208084,233.204758 183.970779,233.617340 
	C181.188156,238.978134 185.398346,237.927505 188.648743,238.688416 
	C189.843018,243.214264 190.557755,247.248169 191.272491,251.282089 
	C191.272507,251.282089 191.120621,251.015472 190.770874,251.061325 
	C185.814850,251.394882 181.197678,251.572998 176.608170,252.029388 
	C174.989395,252.190353 173.438248,253.031677 171.856232,253.562378 
	C171.856232,253.562378 171.858749,253.837662 171.399933,253.992294 
	C170.749008,254.998840 170.556885,255.850754 170.364777,256.702667 
	C169.636139,257.693298 168.907486,258.683929 167.511108,259.805634 
	C166.543015,259.939392 166.242661,259.942017 165.892776,259.586670 
	C164.224091,258.178528 162.604935,257.128326 161.377975,255.984451 
	C165.520096,255.654419 165.116699,252.812531 165.115829,250.373032 
	C165.110703,236.077988 165.061768,221.782852 164.995514,207.487915 
	C164.939301,195.358597 164.839645,183.229492 164.759216,171.100296 
M180.081406,224.280045 
	C169.781631,224.477463 171.646484,223.543289 171.269409,233.159714 
	C171.178543,235.477356 170.956009,237.828751 171.234131,240.110992 
	C171.509949,242.374283 172.049988,246.338715 172.978378,246.491440 
	C177.174759,247.181656 181.717560,248.058182 185.759659,246.015411 
	C185.770370,245.488434 185.781097,244.961456 185.791824,244.434464 
	C183.019226,243.991791 180.246628,243.549118 177.037582,243.036758 
	C177.037582,240.155167 177.237701,237.508301 176.993301,234.903122 
	C176.566391,230.352264 177.500504,227.419144 183.026413,228.055710 
	C185.558350,228.347382 186.328506,226.921234 184.850861,223.997971 
	C183.553116,224.043594 182.255386,224.089233 180.081406,224.280045 
z"/>
<path fill="#53525D" opacity="1.000000" stroke="none" 
	d="
M228.051392,255.336395 
	C224.728912,255.329727 221.733170,255.890625 219.118973,255.133728 
	C217.155914,254.565369 215.683151,252.303619 213.992126,250.795746 
	C215.677887,249.661972 217.355789,247.554871 219.050568,247.541229 
	C242.369751,247.353409 265.691254,247.456055 289.012177,247.480942 
	C291.912476,247.484024 295.502350,247.365417 295.318085,251.239410 
	C295.145813,254.862274 291.756439,255.457367 288.510620,255.446686 
	C268.521210,255.380905 248.531586,255.368240 228.051392,255.336395 
z"/>
<path fill="#504F5A" opacity="1.000000" stroke="none" 
	d="
M264.766815,132.980606 
	C270.243469,122.690163 278.851166,117.849106 289.751892,116.591805 
	C294.653809,116.026405 296.109436,117.451614 295.912262,122.398918 
	C295.264832,138.643433 283.937988,150.037689 267.767365,150.916916 
	C263.661285,151.140152 261.754822,149.797455 262.511108,145.515259 
	C263.229034,141.450165 263.876099,137.372559 264.766815,132.980606 
M270.684631,137.551682 
	C270.433594,139.245087 270.182556,140.938477 269.917511,142.726608 
	C280.050964,142.657120 288.719818,133.650299 287.576447,124.646965 
	C279.372833,125.139893 274.271606,129.722046 270.684631,137.551682 
z"/>
<path fill="#393540" opacity="1.000000" stroke="none" 
	d="
M197.941711,126.978348 
	C197.304810,126.501564 196.667892,126.024773 195.982590,124.876999 
	C195.661926,123.146599 195.389679,122.087196 195.102509,120.693130 
	C195.210373,119.932739 195.333160,119.507011 195.789490,118.946510 
	C197.822479,112.907784 194.973679,104.929153 189.866058,102.147697 
	C185.839615,99.955009 181.729721,97.097229 176.555496,100.626770 
	C172.832153,102.531952 169.467255,104.292770 165.745605,106.054085 
	C164.153397,106.786072 162.917923,107.517563 161.546570,108.200851 
	C161.269623,108.025162 161.129089,107.897079 160.984070,107.338829 
	C160.158035,106.363388 159.337036,105.817543 158.226074,105.183136 
	C156.968292,104.367760 156.000443,103.640953 154.984680,102.552765 
	C151.630722,99.044525 148.066360,97.693031 143.590118,100.735077 
	C142.859055,100.902573 142.426880,100.936729 141.795135,100.701065 
	C140.093658,101.345894 138.591782,102.260536 136.980270,103.291138 
	C136.870636,103.407104 136.557480,103.468796 136.168701,103.371765 
	C135.310822,104.013329 134.841721,104.751915 134.267395,105.732147 
	C133.782425,106.320335 133.402664,106.666862 132.694946,107.013168 
	C131.899139,108.339890 131.431244,109.666832 130.925171,111.391708 
	C130.577194,114.189842 130.267410,116.590034 129.635666,119.015877 
	C128.881958,119.693260 128.450195,120.345001 128.018448,120.996750 
	C127.433464,121.212326 126.848480,121.427910 125.819626,121.592667 
	C124.096855,114.929749 124.628403,108.978218 130.363693,104.229332 
	C132.098251,102.793091 132.828659,100.144127 134.019043,98.050667 
	C134.019043,98.050667 134.264877,97.803009 134.862808,97.832367 
	C139.585648,97.175377 143.720627,96.541481 147.825607,95.751526 
	C148.516846,95.618500 149.448837,94.923691 149.638504,94.297348 
	C150.704834,90.776115 151.578033,87.196396 152.517120,83.636627 
	C152.517120,83.636627 152.602112,83.600494 152.995117,83.679031 
	C157.471649,82.857925 161.524261,81.531670 165.651291,81.232605 
	C167.824142,81.075157 170.127029,82.712273 172.371201,83.539085 
	C172.371201,83.539085 172.376770,83.622177 172.289490,84.012665 
	C173.155090,87.336075 173.978683,90.321129 175.129120,93.174408 
	C175.546967,94.210747 176.638824,95.521919 177.605530,95.696228 
	C181.908615,96.472115 186.277771,96.881645 190.623047,97.423599 
	C192.955231,99.479889 195.287399,101.536186 197.733398,104.226242 
	C198.465302,105.604332 199.083389,106.348656 199.701492,107.092972 
	C200.422668,109.488922 201.143860,111.884872 201.592072,114.838684 
	C201.494431,116.254257 201.669769,117.111954 201.845123,117.969658 
	C201.279831,120.413261 200.714539,122.856857 199.689590,125.636642 
	C198.800522,126.308006 198.371109,126.643173 197.941711,126.978348 
M159.006302,98.759514 
	C161.670227,102.453995 163.968063,101.404488 166.461304,97.668755 
	C167.436691,96.816299 168.412094,95.963844 169.977707,94.927017 
	C169.840439,93.572144 169.703171,92.217270 169.307053,90.264748 
	C169.224075,89.839012 169.141083,89.413269 169.521301,88.625496 
	C168.702759,88.073265 167.884232,87.521027 166.657776,86.719711 
	C166.399338,86.529106 166.173035,86.305916 165.879196,85.326584 
	C163.890182,85.458649 161.901184,85.590714 159.429947,86.047630 
	C158.937958,86.355942 158.445984,86.664261 157.172165,86.961594 
	C153.198288,87.499031 153.996552,90.615211 154.181610,93.035767 
	C154.390762,95.771126 155.481140,98.183304 159.003326,98.003708 
	C159.003326,98.003708 158.977402,98.035904 159.006302,98.759514 
z"/>
<path fill="#67646E" opacity="1.000000" stroke="none" 
	d="
M150.712143,169.751175 
	C150.783478,169.288971 151.017761,169.206848 151.943542,169.254517 
	C153.385941,171.109344 154.701355,172.807632 154.784622,174.564331 
	C155.063309,180.442657 154.905457,186.341858 154.907578,192.233063 
	C154.913116,207.502289 154.914810,222.771530 154.913574,238.504883 
	C154.990967,244.996414 155.072784,251.023849 154.962204,257.097290 
	C154.769791,257.143341 154.392761,257.023315 154.392761,257.023315 
	C153.691422,254.468658 152.399292,251.918335 152.380508,249.358673 
	C152.200378,224.799408 152.263672,200.238434 152.151062,175.678436 
	C152.142563,173.827454 151.319504,171.980225 150.712143,169.751175 
z"/>
<path fill="#595660" opacity="1.000000" stroke="none" 
	d="
M190.837738,219.643921 
	C186.011703,220.009674 181.081024,220.136719 176.166885,219.907944 
	C174.327713,219.822311 172.527130,218.908005 170.355255,217.718185 
	C170.053696,201.388672 170.105835,185.712494 170.157974,170.036316 
	C173.225342,168.923706 174.557327,166.800156 174.057632,163.523438 
	C173.909592,162.552811 173.982529,161.547073 173.971130,160.557220 
	C173.846024,149.695511 173.924911,151.551270 181.927246,149.123459 
	C175.034164,151.697876 175.686417,157.380585 176.234314,163.419510 
	C176.422943,165.498474 174.597870,167.739471 173.775421,169.937393 
	C173.114960,171.702377 172.078064,173.511429 172.068558,175.305496 
	C171.999054,188.403992 172.252884,201.504486 172.151138,214.602371 
	C172.126038,217.834564 173.761261,218.008804 176.152786,218.143723 
	C181.020630,218.418335 185.877975,218.879532 190.837738,219.643921 
z"/>
<path fill="#67646E" opacity="1.000000" stroke="none" 
	d="
M133.672974,98.038956 
	C132.828659,100.144127 132.098251,102.793091 130.363693,104.229332 
	C124.628403,108.978218 124.096855,114.929749 125.653206,121.866150 
	C126.269768,123.947754 126.608894,125.705048 126.901382,127.853439 
	C120.620331,121.319092 121.370865,105.516167 133.672974,98.038956 
z"/>
<path fill="#67646E" opacity="1.000000" stroke="none" 
	d="
M152.213867,83.785660 
	C151.578033,87.196396 150.704834,90.776115 149.638504,94.297348 
	C149.448837,94.923691 148.516846,95.618500 147.825607,95.751526 
	C143.720627,96.541481 139.585648,97.175377 135.033966,97.798454 
	C137.723816,96.493530 140.752243,94.658737 143.982101,94.178398 
	C147.159393,93.705872 148.577255,92.762169 149.069565,89.519447 
	C149.367157,87.559265 150.921143,85.789825 152.213867,83.785660 
z"/>
<path fill="#67646E" opacity="1.000000" stroke="none" 
	d="
M190.434219,97.122467 
	C186.277771,96.881645 181.908615,96.472115 177.605530,95.696228 
	C176.638824,95.521919 175.546967,94.210747 175.129120,93.174408 
	C173.978683,90.321129 173.155090,87.336075 172.327179,84.030373 
	C173.762680,85.866173 175.720200,87.938492 176.221207,90.317535 
	C176.857712,93.340157 178.358521,93.730400 180.947693,94.112724 
	C184.111267,94.579857 187.151703,95.880905 190.434219,97.122467 
z"/>
<path fill="#33323D" opacity="1.000000" stroke="none" 
	d="
M160.985779,256.078156 
	C162.604935,257.128326 164.224091,258.178528 165.464783,259.613129 
	C161.928009,259.743073 158.769699,259.488617 155.611404,259.234161 
	C155.227371,258.717499 154.843338,258.200806 154.426025,257.353729 
	C154.392761,257.023315 154.769791,257.143341 155.330338,256.974121 
	C156.259048,254.684647 156.511810,252.535431 157.033844,250.453766 
	C157.415298,248.932648 158.151077,247.500397 158.831177,246.423965 
	C159.617554,249.905655 160.301666,252.991898 160.985779,256.078156 
z"/>
<path fill="#67646E" opacity="1.000000" stroke="none" 
	d="
M172.254883,83.218994 
	C170.127029,82.712273 167.824142,81.075157 165.651291,81.232605 
	C161.524261,81.531670 157.471649,82.857925 153.009064,83.635002 
	C158.598160,77.478134 165.550491,77.259483 172.254883,83.218994 
z"/>
<path fill="#595660" opacity="1.000000" stroke="none" 
	d="
M172.333908,253.549683 
	C173.438248,253.031677 174.989395,252.190353 176.608170,252.029388 
	C181.197678,251.572998 185.814850,251.394882 190.863480,251.183655 
	C189.703156,251.996002 188.136429,253.254395 186.490921,253.367615 
	C181.948746,253.680099 177.373657,253.513901 172.333908,253.549683 
z"/>
<path fill="#67646E" opacity="1.000000" stroke="none" 
	d="
M144.642059,150.805069 
	C148.584457,149.814621 150.400742,151.528503 150.095520,155.838974 
	C149.842636,159.410126 149.928986,163.005280 149.722794,167.085266 
	C149.213181,163.890152 148.520508,160.194183 148.581116,156.510635 
	C148.629883,153.547455 147.804459,151.774582 144.642059,150.805069 
z"/>
<path fill="#595660" opacity="1.000000" stroke="none" 
	d="
M185.923218,141.710205 
	C183.035950,138.690994 183.969299,136.690552 187.683701,135.190994 
	C190.400436,134.094223 192.915649,132.498230 195.890930,131.173340 
	C194.011200,133.017746 192.005386,135.437683 189.444748,136.439575 
	C186.706787,137.510834 185.878265,138.918762 185.923218,141.710205 
z"/>
<path fill="#595660" opacity="1.000000" stroke="none" 
	d="
M184.388748,233.712982 
	C184.208084,233.204758 184.512924,232.406998 184.672974,232.435059 
	C191.359116,233.607285 191.029007,228.896347 191.503159,224.370880 
	C193.433777,232.598724 192.544876,233.842926 184.388748,233.712982 
z"/>
<path fill="#595660" opacity="1.000000" stroke="none" 
	d="
M155.753845,259.557922 
	C158.769699,259.488617 161.928009,259.743073 165.514313,259.971130 
	C166.242661,259.942017 166.543015,259.939392 167.294525,259.951233 
	C163.163544,263.565247 160.434525,263.545898 155.753845,259.557922 
z"/>
<path fill="#595660" opacity="1.000000" stroke="none" 
	d="
M191.586975,251.088165 
	C190.557755,247.248169 189.843018,243.214264 189.042831,238.833908 
	C190.073761,239.821762 191.920776,241.043228 192.148026,242.514816 
	C192.567413,245.230499 192.036453,248.092941 191.586975,251.088165 
z"/>
<path fill="#595660" opacity="1.000000" stroke="none" 
	d="
M197.809937,127.292641 
	C198.371109,126.643173 198.800522,126.308006 199.510574,125.962624 
	C198.813461,127.644478 197.835724,129.336563 196.547302,131.140320 
	C196.717148,130.036987 197.197662,128.821960 197.809937,127.292641 
z"/>
<path fill="#67646E" opacity="1.000000" stroke="none" 
	d="
M139.369461,141.208237 
	C139.949799,142.420410 140.327316,143.912811 140.465851,145.671661 
	C139.873474,144.454895 139.520065,142.971695 139.369461,141.208237 
z"/>
<path fill="#67646E" opacity="1.000000" stroke="none" 
	d="
M202.044647,117.777458 
	C201.669769,117.111954 201.494431,116.254257 201.555115,115.221512 
	C201.942169,115.892738 202.093185,116.738998 202.044647,117.777458 
z"/>
<path fill="#67646E" opacity="1.000000" stroke="none" 
	d="
M199.720535,106.777512 
	C199.083389,106.348656 198.465302,105.604332 197.882431,104.531647 
	C198.524948,104.956207 199.132263,105.709129 199.720535,106.777512 
z"/>
<path fill="#595660" opacity="1.000000" stroke="none" 
	d="
M183.261963,148.742493 
	C183.376968,147.873489 183.798035,146.960800 184.544876,146.012451 
	C184.436432,146.884125 184.002228,147.791489 183.261963,148.742493 
z"/>
<path fill="#595660" opacity="1.000000" stroke="none" 
	d="
M170.615814,256.496826 
	C170.556885,255.850754 170.749008,254.998840 171.262878,254.004944 
	C171.345383,254.672318 171.106125,255.481659 170.615814,256.496826 
z"/>
<path fill="#67646E" opacity="1.000000" stroke="none" 
	d="
M137.212280,137.095154 
	C137.713760,136.921494 138.390976,137.004807 139.111206,137.351105 
	C138.565506,137.526764 137.976746,137.439438 137.212280,137.095154 
z"/>
<path fill="#FBFBFB" opacity="1.000000" stroke="none" 
	d="
M307.265076,184.910156 
	C304.399384,202.599991 297.334106,217.578339 282.391998,227.450562 
	C261.633636,241.165619 226.999527,237.828186 211.274734,211.155182 
	C203.986191,198.792084 201.216324,185.265381 200.077469,171.222549 
	C199.847961,168.392593 200.997498,167.417709 203.799484,167.428314 
	C237.435684,167.555786 271.072174,167.639038 304.708557,167.627182 
	C308.455170,167.625854 309.330811,169.418594 308.904968,172.606644 
	C308.376556,176.562576 307.833466,180.516541 307.265076,184.910156 
z"/>
<path fill="#F4F4F5" opacity="1.000000" stroke="none" 
	d="
M318.012421,181.918457 
	C325.919189,177.199890 332.147461,177.755386 335.169830,183.675888 
	C337.801575,188.831207 336.725037,194.285400 333.929901,198.975739 
	C327.739960,209.362778 317.771179,213.578369 305.671783,215.315857 
	C305.993683,213.796478 306.098145,212.909912 306.370605,212.078354 
	C308.946655,204.216080 311.456390,196.329712 314.207184,188.528549 
	C315.003571,186.270111 316.515259,184.263916 318.012421,181.918457 
z"/>
<path fill="#EDEDED" opacity="1.000000" stroke="none" 
	d="
M237.220947,120.843269 
	C226.030441,111.060997 221.430145,96.995819 225.076065,84.369614 
	C240.317154,85.665741 258.342987,103.890244 253.401260,122.496559 
	C251.722473,120.110260 250.287170,118.260529 249.057526,116.282913 
	C246.431015,112.058784 243.940796,107.750107 241.334213,103.513298 
	C240.117386,101.535423 238.887085,99.092567 235.943787,100.752419 
	C232.520737,102.682816 234.731766,105.107864 235.883926,107.098801 
	C238.296127,111.267120 240.996674,115.267624 243.526474,119.369324 
	C244.464294,120.889862 245.255371,122.500923 246.113342,124.070709 
	C245.809540,124.485954 245.505722,124.901192 245.201904,125.316437 
	C242.637527,123.899147 240.073166,122.481857 237.220947,120.843269 
z"/>
<path fill="#EDEDED" opacity="1.000000" stroke="none" 
	d="
M133.022888,107.013390 
	C133.402664,106.666862 133.782425,106.320335 134.550385,105.615242 
	C135.478210,104.660721 136.017838,104.064758 136.557480,103.468796 
	C136.557480,103.468796 136.870636,103.407104 137.331421,103.297752 
	C139.193054,102.449226 140.593887,101.710060 141.994720,100.970886 
	C142.426880,100.936729 142.859055,100.902573 144.010345,100.878548 
	C148.163864,101.563843 151.598236,102.238991 155.032608,102.914154 
	C156.000443,103.640953 156.968292,104.367760 158.287994,105.457825 
	C159.422943,106.470200 160.206009,107.119316 160.989090,107.768425 
	C161.129089,107.897079 161.269623,108.025162 161.631348,108.485512 
	C163.268768,107.896767 164.685562,106.975174 166.102341,106.053589 
	C169.467255,104.292770 172.832153,102.531952 176.971527,100.784523 
	C180.464447,101.270699 183.355774,101.305779 185.868958,102.298340 
	C193.408478,105.275993 195.222229,111.787697 195.455963,119.081284 
	C195.333160,119.507011 195.210373,119.932739 194.834366,120.916191 
	C194.282074,122.597267 193.983002,123.720627 193.683929,124.843979 
	C191.017624,126.914932 188.351318,128.985886 184.940292,131.150635 
	C181.108414,130.886490 178.021255,130.528534 174.934097,130.170578 
	C174.176941,129.241211 173.419785,128.311829 172.765533,126.560257 
	C172.884827,122.750816 172.901215,119.763565 172.995117,116.529579 
	C173.244629,115.827950 173.416641,115.373062 173.588669,114.918182 
	C175.465576,114.305153 177.342499,113.692131 179.751938,113.318062 
	C180.840836,113.737717 181.397217,113.918419 181.953598,114.099121 
	C182.006821,114.257584 182.060043,114.416054 182.222961,115.115387 
	C182.445312,116.129364 182.557968,116.602493 182.670609,117.075615 
	C182.268646,117.787033 181.737045,118.456650 181.491409,119.218475 
	C180.960526,120.864845 180.576294,122.558495 180.132080,124.232803 
	C182.182571,123.865387 184.756943,124.150543 186.183182,123.005547 
	C190.120712,119.844460 189.677353,115.621025 187.331055,110.875427 
	C186.328674,109.870712 185.672745,109.416565 185.016800,108.962418 
	C184.552750,108.615990 184.088684,108.269554 183.133331,107.616119 
	C180.761505,107.207497 178.880966,107.105865 177.000427,107.004234 
	C174.489395,108.197639 171.978378,109.391045 168.952026,110.932060 
	C167.986664,112.198006 167.536621,113.116333 167.086578,114.034668 
	C161.100876,122.483353 164.791809,133.193344 175.036865,137.404434 
	C176.589233,138.042511 177.893509,139.284134 179.317627,140.949280 
	C179.224060,142.436569 179.125381,143.221146 179.026718,144.005722 
	C178.525711,144.397324 178.024704,144.788940 176.886078,145.314301 
	C173.829803,144.971741 171.411148,144.495438 168.992523,144.019119 
	C168.701263,143.437775 168.513687,142.767563 168.103058,142.288559 
	C162.814423,136.119110 162.981827,136.305283 157.306610,141.859924 
	C155.379242,143.746338 152.321274,144.477600 149.222641,145.603607 
	C148.108490,145.318604 147.551620,145.166687 146.994751,145.014771 
	C146.929230,142.955856 146.863708,140.896942 147.267151,138.482483 
	C148.828659,137.429886 149.921204,136.732819 151.013733,136.035751 
	C151.469849,136.013855 151.925949,135.991959 152.997742,135.757782 
	C160.872559,129.348770 163.293396,124.542961 158.961411,112.738571 
	C158.172760,111.612343 157.372894,110.876976 156.314117,110.077286 
	C155.704956,109.618172 155.354706,109.223381 154.951935,108.476593 
	C152.387955,105.371063 149.640091,103.712509 145.643616,106.388062 
	C140.364807,107.313606 137.971649,110.745949 136.086853,115.084335 
	C136.014084,116.122169 136.197342,117.066513 136.584442,118.325745 
	C138.243149,122.430275 140.478851,125.216736 145.232040,125.286392 
	C149.129517,123.465248 148.980820,121.695045 144.536880,118.815781 
	C142.512741,115.566292 142.904129,113.619026 146.971863,113.835831 
	C147.754257,114.035431 148.405273,113.943283 149.426010,113.837051 
	C156.127182,119.273102 155.992966,124.589127 149.371552,130.625763 
	C148.474701,130.861115 147.577835,131.096466 145.974472,131.353027 
	C142.519394,130.899689 139.770828,130.425140 137.022263,129.950607 
	C136.027786,129.128006 135.033310,128.305405 133.760925,126.984718 
	C132.722946,125.527397 131.962891,124.568176 131.202820,123.608948 
	C131.039246,122.841438 130.875671,122.073929 130.581772,120.742928 
	C130.286835,119.783035 130.122223,119.386635 129.957611,118.990234 
	C130.267410,116.590034 130.577194,114.189842 131.206390,111.221176 
	C132.024811,109.439598 132.523849,108.226494 133.022888,107.013390 
z"/>
<path fill="#E2E2E5" opacity="1.000000" stroke="none" 
	d="
M161.377975,255.984451 
	C160.301666,252.991898 159.617554,249.905655 158.949631,246.088562 
	C158.886383,244.897156 158.806976,244.436554 158.830811,243.614136 
	C158.865494,242.509903 158.796906,241.767502 158.852692,240.655151 
	C158.906464,239.516663 158.835892,238.748123 158.874664,237.523666 
	C158.999466,216.810120 159.115128,196.551636 158.942856,176.295624 
	C158.909760,172.402634 159.692490,170.201965 163.976746,170.572815 
	C164.074921,170.708679 164.173080,170.844528 164.515228,171.040329 
	C164.839645,183.229492 164.939301,195.358597 164.995514,207.487915 
	C165.061768,221.782852 165.110703,236.077988 165.115829,250.373032 
	C165.116699,252.812531 165.520096,255.654419 161.377975,255.984451 
z"/>
<path fill="#33323D" opacity="1.000000" stroke="none" 
	d="
M163.974030,170.194855 
	C159.692490,170.201965 158.909760,172.402634 158.942856,176.295624 
	C159.115128,196.551636 158.999466,216.810120 158.491364,237.526245 
	C156.971802,238.003418 155.944916,238.022079 154.918030,238.040756 
	C154.914810,222.771530 154.913116,207.502289 154.907578,192.233063 
	C154.905457,186.341858 155.063309,180.442657 154.784622,174.564331 
	C154.701355,172.807632 153.385941,171.109344 152.312531,169.204285 
	C152.871933,167.734070 153.753845,166.443893 155.199646,165.001465 
	C156.181824,164.661896 156.600113,164.474548 157.478210,164.309189 
	C161.638382,164.381271 165.338776,164.431351 169.039169,164.481445 
	C168.190323,167.058212 162.431610,164.971375 163.974030,170.194855 
z"/>
<path fill="#494753" opacity="1.000000" stroke="none" 
	d="
M158.950195,113.129425 
	C163.293396,124.542961 160.872559,129.348770 153.288818,135.570892 
	C151.984741,134.070038 151.005280,132.543823 149.698685,130.821686 
	C155.992966,124.589127 156.127182,119.273102 149.251877,113.660141 
	C148.085495,113.512901 147.462982,113.528488 146.840469,113.544083 
	C142.904129,113.619026 142.512741,115.566292 144.614380,119.178986 
	C145.043503,121.522667 145.030182,123.283951 145.016861,125.045242 
	C140.478851,125.216736 138.243149,122.430275 136.689911,117.953308 
	C136.508667,116.507614 136.425781,115.749229 136.342896,114.990852 
	C137.971649,110.745949 140.364807,107.313606 146.032211,106.538086 
	C149.517365,107.278008 152.260910,108.053299 155.004456,108.828590 
	C155.354706,109.223381 155.704956,109.618172 156.448395,110.373497 
	C157.544449,111.532494 158.247314,112.330963 158.950195,113.129425 
z"/>
<path fill="#33323D" opacity="1.000000" stroke="none" 
	d="
M169.785248,170.025803 
	C170.105835,185.712494 170.053696,201.388672 170.017258,217.533630 
	C169.357086,217.236694 168.106766,216.481155 168.092972,215.703690 
	C167.930145,206.526703 168.053452,197.344589 167.885880,188.167755 
	C167.792984,183.080429 167.295242,178.000488 166.972275,172.470093 
	C167.780563,171.353745 168.596527,170.684525 169.785248,170.025803 
z"/>
<path fill="#D5D5DA" opacity="1.000000" stroke="none" 
	d="
M155.992920,153.910767 
	C154.484253,149.154663 160.240356,150.206970 161.187210,147.414124 
	C162.533554,147.936325 163.925369,148.367462 165.211807,149.009689 
	C166.232666,149.519302 167.124496,150.287369 168.436295,151.347778 
	C168.901199,152.172913 169.003433,152.590927 169.105682,153.008957 
	C168.785263,153.294235 168.464874,153.579498 167.627777,153.946564 
	C163.405045,153.989166 159.698975,153.949966 155.992920,153.910767 
z"/>
<path fill="#393540" opacity="1.000000" stroke="none" 
	d="
M156.000046,154.349365 
	C159.698975,153.949966 163.405045,153.989166 167.512665,154.128510 
	C168.367203,157.271667 167.781128,159.746277 164.000412,158.903351 
	C161.070114,158.250061 155.679077,161.865021 156.000046,154.349365 
z"/>
<path fill="#EDEDED" opacity="1.000000" stroke="none" 
	d="
M169.203262,163.992432 
	C165.338776,164.431351 161.638382,164.381271 157.260056,164.006317 
	C156.136337,163.484009 155.690552,163.286545 155.244781,163.089081 
	C155.988342,162.223618 156.676086,160.678711 157.485291,160.612244 
	C160.708130,160.347458 163.989746,160.351654 167.200974,160.701996 
	C168.015274,160.790833 168.650070,162.525177 169.203262,163.992432 
z"/>
<path fill="#595660" opacity="1.000000" stroke="none" 
	d="
M175.012939,130.530411 
	C178.021255,130.528534 181.108414,130.886490 184.627380,131.328537 
	C181.575241,134.319626 178.279602,133.633453 175.012939,130.530411 
z"/>
<path fill="#595660" opacity="1.000000" stroke="none" 
	d="
M137.058350,130.322937 
	C139.770828,130.425140 142.519394,130.899689 145.671936,131.528976 
	C142.774460,134.149429 139.806030,133.589310 137.058350,130.322937 
z"/>
<path fill="#EAE9E8" opacity="1.000000" stroke="none" 
	d="
M172.917603,116.776321 
	C172.901215,119.763565 172.884827,122.750816 172.775116,126.251335 
	C172.135620,124.467407 171.589417,122.170197 171.275665,119.273941 
	C171.977936,118.042038 172.447769,117.409180 172.917603,116.776321 
z"/>
<path fill="#595660" opacity="1.000000" stroke="none" 
	d="
M169.034576,144.380325 
	C171.411148,144.495438 173.829803,144.971741 176.662735,145.540878 
	C174.065979,148.423309 171.575272,146.546860 169.034576,144.380325 
z"/>
<path fill="#595660" opacity="1.000000" stroke="none" 
	d="
M177.218338,107.274826 
	C178.880966,107.105865 180.761505,107.207497 182.840866,107.581985 
	C181.171875,107.751709 179.304062,107.648560 177.218338,107.274826 
z"/>
<path fill="#494753" opacity="1.000000" stroke="none" 
	d="
M150.824570,135.778381 
	C149.921204,136.732819 148.828659,137.429886 147.401169,138.148712 
	C148.255951,137.287308 149.445679,136.404160 150.824570,135.778381 
z"/>
<path fill="#595660" opacity="1.000000" stroke="none" 
	d="
M194.055542,124.887306 
	C193.983002,123.720627 194.282074,122.597267 194.849274,121.250854 
	C195.389679,122.087196 195.661926,123.146599 195.926544,124.552490 
	C195.421631,124.909531 194.924393,124.920082 194.055542,124.887306 
z"/>
<path fill="#595660" opacity="1.000000" stroke="none" 
	d="
M172.995117,116.529579 
	C172.447769,117.409180 171.977936,118.042038 171.260315,118.849091 
	C171.633377,117.665802 172.254272,116.308304 173.231903,114.934494 
	C173.416641,115.373062 173.244629,115.827950 172.995117,116.529579 
z"/>
<path fill="#595660" opacity="1.000000" stroke="none" 
	d="
M131.136475,123.978424 
	C131.962891,124.568176 132.722946,125.527397 133.497406,126.790009 
	C132.697891,126.178223 131.884003,125.263069 131.136475,123.978424 
z"/>
<path fill="#595660" opacity="1.000000" stroke="none" 
	d="
M179.336670,143.979599 
	C179.125381,143.221146 179.224060,142.436569 179.482864,141.288696 
	C179.644211,141.934753 179.645432,142.944122 179.336670,143.979599 
z"/>
<path fill="#595660" opacity="1.000000" stroke="none" 
	d="
M167.418701,113.990959 
	C167.536621,113.116333 167.986664,112.198006 168.746719,111.205063 
	C168.621445,112.069382 168.186142,113.008316 167.418701,113.990959 
z"/>
<path fill="#595660" opacity="1.000000" stroke="none" 
	d="
M185.043076,109.294518 
	C185.672745,109.416565 186.328674,109.870712 187.022400,110.648651 
	C186.396576,110.523819 185.732971,110.075218 185.043076,109.294518 
z"/>
<path fill="#595660" opacity="1.000000" stroke="none" 
	d="
M181.955460,113.794647 
	C181.397217,113.918419 180.840836,113.737717 180.136261,113.298866 
	C180.644501,113.190544 181.300903,113.340363 181.955460,113.794647 
z"/>
<path fill="#9D9EA7" opacity="1.000000" stroke="none" 
	d="
M155.112915,163.283295 
	C155.690552,163.286545 156.136337,163.484009 156.800262,163.984344 
	C156.600113,164.474548 156.181824,164.661896 155.516693,164.849716 
	C155.173584,164.392639 155.077301,163.935074 155.112915,163.283295 
z"/>
<path fill="#4B4B57" opacity="1.000000" stroke="none" 
	d="
M169.406921,152.967712 
	C169.003433,152.590927 168.901199,152.172913 168.766281,151.433823 
	C169.301254,151.259933 169.868912,151.407104 170.436569,151.554291 
	C170.193756,152.011688 169.950958,152.469070 169.406921,152.967712 
z"/>
<path fill="#595660" opacity="1.000000" stroke="none" 
	d="
M182.896973,116.992279 
	C182.557968,116.602493 182.445312,116.129364 182.399078,115.293884 
	C182.684784,115.590660 182.904068,116.249794 182.896973,116.992279 
z"/>
<path fill="#494753" opacity="1.000000" stroke="none" 
	d="
M147.019196,145.313385 
	C147.551620,145.166687 148.108490,145.318604 148.845108,145.700775 
	C148.364456,145.824707 147.704056,145.718353 147.019196,145.313385 
z"/>
<path fill="#595660" opacity="1.000000" stroke="none" 
	d="
M129.635666,119.015877 
	C130.122223,119.386635 130.286835,119.783035 130.410812,120.502289 
	C129.848404,120.879509 129.326645,120.933891 128.411652,120.992508 
	C128.450195,120.345001 128.881958,119.693260 129.635666,119.015877 
z"/>
<path fill="#D5D5DA" opacity="1.000000" stroke="none" 
	d="
M185.035233,224.622711 
	C186.328506,226.921234 185.558350,228.347382 183.026413,228.055710 
	C177.500504,227.419144 176.566391,230.352264 176.993301,234.903122 
	C177.237701,237.508301 177.037582,240.155167 177.037582,243.036758 
	C180.246628,243.549118 183.019226,243.991791 185.791824,244.434464 
	C185.781097,244.961456 185.770370,245.488434 185.759659,246.015411 
	C181.717560,248.058182 177.174759,247.181656 172.978378,246.491440 
	C172.049988,246.338715 171.509949,242.374283 171.234131,240.110992 
	C170.956009,237.828751 171.178543,235.477356 171.269409,233.159714 
	C171.646484,223.543289 169.781631,224.477463 180.809036,224.398178 
	C182.702850,224.551788 183.869049,224.587250 185.035233,224.622711 
z"/>
<path fill="#595660" opacity="1.000000" stroke="none" 
	d="
M184.943054,224.310333 
	C183.869049,224.587250 182.702850,224.551788 181.247162,224.325592 
	C182.255386,224.089233 183.553116,224.043594 184.943054,224.310333 
z"/>
<path fill="#EDEDED" opacity="1.000000" stroke="none" 
	d="
M270.810791,137.178070 
	C274.271606,129.722046 279.372833,125.139893 287.576447,124.646965 
	C288.719818,133.650299 280.050964,142.657120 269.917511,142.726608 
	C270.182556,140.938477 270.433594,139.245087 270.810791,137.178070 
z"/>
<path fill="#EDEDED" opacity="1.000000" stroke="none" 
	d="
M157.953995,86.972580 
	C158.445984,86.664261 158.937958,86.355942 160.101669,85.953415 
	C162.508560,85.922844 164.243713,85.986488 165.978882,86.050140 
	C166.173035,86.305916 166.399338,86.529106 166.907944,87.143997 
	C167.791443,88.041359 168.424759,88.514442 169.058090,88.987534 
	C169.141083,89.413269 169.224075,89.839012 169.275345,90.967163 
	C169.291595,92.816841 169.339539,93.964119 169.387482,95.111389 
	C168.412094,95.963844 167.436691,96.816299 165.906616,97.937866 
	C163.227081,98.149963 161.102234,98.092934 158.977402,98.035904 
	C158.977402,98.035904 159.003326,98.003708 158.898529,97.659561 
	C154.290604,94.210693 155.512955,90.641113 157.953995,86.972580 
z"/>
<path fill="#595660" opacity="1.000000" stroke="none" 
	d="
M195.789490,118.946510 
	C195.222229,111.787697 193.408478,105.275993 185.868958,102.298340 
	C183.355774,101.305779 180.464447,101.270699 177.329956,100.640167 
	C181.729721,97.097229 185.839615,99.955009 189.866058,102.147697 
	C194.973679,104.929153 197.822479,112.907784 195.789490,118.946510 
z"/>
<path fill="#67646E" opacity="1.000000" stroke="none" 
	d="
M157.563080,86.967087 
	C155.512955,90.641113 154.290604,94.210693 158.880569,97.668793 
	C155.481140,98.183304 154.390762,95.771126 154.181610,93.035767 
	C153.996552,90.615211 153.198288,87.499031 157.563080,86.967087 
z"/>
<path fill="#67646E" opacity="1.000000" stroke="none" 
	d="
M154.984680,102.552765 
	C151.598236,102.238991 148.163864,101.563843 144.309250,100.745224 
	C148.066360,97.693031 151.630722,99.044525 154.984680,102.552765 
z"/>
<path fill="#67646E" opacity="1.000000" stroke="none" 
	d="
M158.991852,98.397705 
	C161.102234,98.092934 163.227081,98.149963 165.726227,98.209534 
	C163.968063,101.404488 161.670227,102.453995 158.991852,98.397705 
z"/>
<path fill="#67646E" opacity="1.000000" stroke="none" 
	d="
M165.929047,85.688362 
	C164.243713,85.986488 162.508560,85.922844 160.342773,85.790993 
	C161.901184,85.590714 163.890182,85.458649 165.929047,85.688362 
z"/>
<path fill="#67646E" opacity="1.000000" stroke="none" 
	d="
M141.795135,100.701065 
	C140.593887,101.710060 139.193054,102.449226 137.441071,103.181793 
	C138.591782,102.260536 140.093658,101.345894 141.795135,100.701065 
z"/>
<path fill="#595660" opacity="1.000000" stroke="none" 
	d="
M165.745605,106.054077 
	C164.685562,106.975174 163.268768,107.896767 161.767227,108.533707 
	C162.917923,107.517563 164.153397,106.786072 165.745605,106.054077 
z"/>
<path fill="#67646E" opacity="1.000000" stroke="none" 
	d="
M132.694946,107.013168 
	C132.523849,108.226494 132.024811,109.439598 131.244568,110.823242 
	C131.431244,109.666832 131.899139,108.339890 132.694946,107.013168 
z"/>
<path fill="#67646E" opacity="1.000000" stroke="none" 
	d="
M169.682587,95.019203 
	C169.339539,93.964119 169.291595,92.816841 169.404770,91.265984 
	C169.703171,92.217270 169.840439,93.572144 169.682587,95.019203 
z"/>
<path fill="#67646E" opacity="1.000000" stroke="none" 
	d="
M169.289703,88.806519 
	C168.424759,88.514442 167.791443,88.041359 167.111908,87.268539 
	C167.884232,87.521027 168.702759,88.073265 169.289703,88.806519 
z"/>
<path fill="#595660" opacity="1.000000" stroke="none" 
	d="
M160.984070,107.338829 
	C160.206009,107.119316 159.422943,106.470200 158.577942,105.546394 
	C159.337036,105.817543 160.158035,106.363388 160.984070,107.338829 
z"/>
<path fill="#67646E" opacity="1.000000" stroke="none" 
	d="
M136.168701,103.371765 
	C136.017838,104.064758 135.478210,104.660721 134.655609,105.373596 
	C134.841721,104.751915 135.310822,104.013329 136.168701,103.371765 
z"/>
<path fill="#3F3D4B" opacity="1.000000" stroke="none" 
	d="
M154.913574,238.504883 
	C155.944916,238.022079 156.971802,238.003418 158.382004,237.982178 
	C158.835892,238.748123 158.906464,239.516663 158.551010,240.719727 
	C158.325836,242.094849 158.526703,243.035400 158.727570,243.975967 
	C158.806976,244.436554 158.886383,244.897156 158.847351,245.693146 
	C158.151077,247.500397 157.415298,248.932648 157.033844,250.453766 
	C156.511810,252.535431 156.259048,254.684647 155.522751,256.928101 
	C155.072784,251.023849 154.990967,244.996414 154.913574,238.504883 
z"/>
<path fill="#EAE9E8" opacity="1.000000" stroke="none" 
	d="
M154.951935,108.476593 
	C152.260910,108.053299 149.517365,107.278008 146.385223,106.352699 
	C149.640091,103.712509 152.387955,105.371063 154.951935,108.476593 
z"/>
<path fill="#EAE9E8" opacity="1.000000" stroke="none" 
	d="
M145.232040,125.286392 
	C145.030182,123.283951 145.043503,121.522667 144.979340,119.398170 
	C148.980820,121.695045 149.129517,123.465248 145.232040,125.286392 
z"/>
<path fill="#EAE9E8" opacity="1.000000" stroke="none" 
	d="
M136.086853,115.084335 
	C136.425781,115.749229 136.508667,116.507614 136.486084,117.638428 
	C136.197342,117.066513 136.014084,116.122169 136.086853,115.084335 
z"/>
<path fill="#EAE9E8" opacity="1.000000" stroke="none" 
	d="
M158.961411,112.738571 
	C158.247314,112.330963 157.544449,111.532494 156.707306,110.437820 
	C157.372894,110.876976 158.172760,111.612343 158.961411,112.738571 
z"/>
<path fill="#EAE9E8" opacity="1.000000" stroke="none" 
	d="
M146.971863,113.835831 
	C147.462982,113.528488 148.085495,113.512901 148.882141,113.674225 
	C148.405273,113.943283 147.754257,114.035431 146.971863,113.835831 
z"/>
<path fill="#33323D" opacity="1.000000" stroke="none" 
	d="
M158.830811,243.614136 
	C158.526703,243.035400 158.325836,242.094849 158.426666,241.089691 
	C158.796906,241.767502 158.865494,242.509903 158.830811,243.614136 
z"/>
</svg>